<svg width="143" height="46" viewBox="0 0 143 46" fill="none" xmlns="http://www.w3.org/2000/svg">
<g clip-path="url(#clip0_60_308)">
<path d="M101.275 42.8087C102.135 42.8087 102.644 42.1475 102.644 41.1136C102.644 40.0418 102.098 39.4185 101.293 39.4185C100.833 39.4185 100.513 39.6255 100.274 39.9544H100.262V38.2605H99.7636V42.7144H100.262V42.2912H100.274C100.532 42.6523 100.845 42.8087 101.275 42.8087ZM101.238 42.3844C100.563 42.3844 100.231 41.8427 100.231 41.1194C100.231 40.4225 100.55 39.8486 101.244 39.8486C101.846 39.8486 102.135 40.3972 102.135 41.1194C102.135 41.8485 101.846 42.3844 101.238 42.3844ZM103.486 43.7805C103.873 43.7805 104.119 43.6425 104.376 42.9755L105.734 39.4933H105.206L104.48 41.5C104.383 41.768 104.272 42.1291 104.272 42.1291H104.26C104.26 42.1291 104.143 41.768 104.045 41.5L103.296 39.4933H102.755L103.995 42.6213L103.873 42.9387C103.75 43.2503 103.609 43.332 103.4 43.332C103.284 43.338 103.167 43.3143 103.062 43.263H103.037V43.7115C103.173 43.7678 103.296 43.7805 103.486 43.7805ZM107.007 42.7144H107.842V38.2605H107.007V42.7144ZM109.885 42.8087C110.861 42.8087 111.531 42.0727 111.531 41.1194C111.531 40.166 110.862 39.4312 109.885 39.4312C108.909 39.4312 108.239 40.1672 108.239 41.1194C108.239 42.0739 108.908 42.8087 109.885 42.8087ZM109.885 42.1601C109.369 42.1601 109.087 41.7427 109.087 41.1194C109.087 40.4972 109.369 40.0729 109.885 40.0729C110.395 40.0729 110.683 40.4972 110.683 41.1194C110.683 41.7427 110.395 42.1601 109.885 42.1601ZM113.307 43.8046C113.774 43.8046 114.179 43.6931 114.443 43.4435C114.677 43.225 114.818 42.9203 114.818 42.4718V39.5186H114.014V39.8555H114.001C113.811 39.5876 113.523 39.4312 113.128 39.4312C112.331 39.4312 111.766 40.0418 111.766 40.9952C111.766 41.9612 112.454 42.5212 113.154 42.5212C113.553 42.5212 113.793 42.3602 113.976 42.1475H113.995V42.4971C113.995 42.9329 113.769 43.1641 113.295 43.1641C112.908 43.1641 112.73 43.0077 112.662 42.8076H111.834C111.919 43.4309 112.447 43.8046 113.307 43.8046ZM113.296 41.8427C112.865 41.8427 112.582 41.5253 112.582 40.9825C112.582 40.4466 112.865 40.1108 113.289 40.1108C113.793 40.1108 114.039 40.5087 114.039 40.9768C114.039 41.4506 113.823 41.8427 113.295 41.8427H113.296ZM116.849 42.8087C117.825 42.8087 118.495 42.0727 118.495 41.1194C118.495 40.166 117.825 39.4312 116.849 39.4312C115.872 39.4312 115.203 40.1672 115.203 41.1194C115.203 42.0739 115.872 42.8087 116.849 42.8087ZM116.849 42.1601C116.333 42.1601 116.049 41.7427 116.049 41.1194C116.049 40.4972 116.333 40.0729 116.849 40.0729C117.358 40.0729 117.647 40.4972 117.647 41.1194C117.647 41.7427 117.358 42.1601 116.849 42.1601ZM118.882 42.7144H119.718V39.5186H118.882V42.7144ZM118.882 39.0206H119.718V38.2605H118.882V39.0206ZM120.256 43.7609H121.092V42.3545H121.103C121.282 42.6293 121.57 42.8099 122.012 42.8099C122.823 42.8099 123.376 42.1544 123.376 41.1205C123.376 40.1235 122.842 39.4323 122.006 39.4323C121.824 39.4293 121.644 39.4722 121.482 39.5571C121.321 39.642 121.182 39.7663 121.079 39.9188H121.061V39.5197H120.256V43.7632V43.7609ZM121.834 42.1049C121.336 42.1049 121.072 41.7243 121.072 41.1447C121.072 40.572 121.282 40.1166 121.803 40.1166C122.319 40.1166 122.528 40.5398 122.528 41.1447C122.528 41.7496 122.258 42.1049 121.834 42.1049ZM125.042 42.8087C125.828 42.8087 126.368 42.4223 126.368 41.7806C126.368 41.0331 125.785 40.8836 125.256 40.7709C124.809 40.6778 124.391 40.6525 124.391 40.3788C124.391 40.1488 124.606 40.0223 124.931 40.0223C125.288 40.0223 125.502 40.1488 125.54 40.4903H126.295C126.233 39.8486 125.773 39.4323 124.943 39.4323C124.225 39.4323 123.66 39.7612 123.66 40.4535C123.66 41.1504 124.212 41.3068 124.778 41.4195C125.208 41.5058 125.607 41.5368 125.607 41.8427C125.607 42.067 125.398 42.2107 125.03 42.2107C124.655 42.2107 124.397 42.0486 124.341 41.6806H123.568C123.617 42.3591 124.127 42.8087 125.042 42.8087ZM129.54 42.7144V39.5186H128.705V41.3632C128.705 41.7864 128.464 42.0854 128.072 42.0854C127.716 42.0854 127.549 41.8795 127.549 41.5058V39.5186H126.721V41.6495C126.721 42.3476 127.114 42.8018 127.814 42.8018C128.256 42.8018 128.502 42.6339 128.717 42.3418H128.735V42.7144H129.54ZM130.08 42.7144H130.915V40.8595C130.915 40.4351 131.142 40.1614 131.48 40.1614C131.787 40.1614 131.965 40.3489 131.965 40.71V42.7156H132.8V40.8595C132.8 40.4351 133.016 40.1614 133.366 40.1614C133.673 40.1614 133.851 40.3489 133.851 40.71V42.7156H134.686V40.5662C134.686 39.8682 134.311 39.4323 133.648 39.4323C133.249 39.4323 132.917 39.6439 132.703 39.9935H132.69C132.615 39.8238 132.492 39.6802 132.337 39.5805C132.181 39.4808 132.001 39.4293 131.817 39.4323C131.633 39.4277 131.451 39.4732 131.29 39.5642C131.129 39.6553 130.995 39.7884 130.903 39.9498H130.884V39.5197H130.08V42.7167V42.7144Z" fill="#E5708C"/>
<path d="M134.851 2.47136C134.851 1.11091 135.938 0.0069147 137.279 0.0069147H138.899C139.543 0.0069147 140.161 0.266561 140.616 0.728735C141.072 1.19091 141.328 1.81775 141.328 2.47136C141.328 3.12498 141.072 3.75182 140.616 4.21399C140.161 4.67617 139.543 4.93581 138.899 4.93581H137.279C136.96 4.93581 136.644 4.87206 136.349 4.7482C136.055 4.62433 135.787 4.44278 135.561 4.21392C135.336 3.98506 135.157 3.71338 135.035 3.41438C134.913 3.11539 134.851 2.79495 134.851 2.47136ZM66.8471 16.4335C66.8471 25.5047 59.5991 32.859 50.6564 32.859C41.7148 32.859 34.4657 25.5047 34.4657 16.4335C34.4657 7.36001 41.7148 0.0080647 50.6564 0.0080647C59.5991 0.0080647 66.8471 7.36001 66.8471 16.4335ZM31.3076 16.3519C32.2031 16.3519 32.9354 17.0879 32.8458 17.9918C32.5398 21.0851 31.3747 24.0267 29.486 26.4749C27.5974 28.9231 25.0626 30.7772 22.1764 31.8218C19.2902 32.8664 16.171 33.0586 13.1813 32.3761C10.1917 31.6935 7.45439 30.1642 5.28753 27.9659C3.12067 25.7677 1.61324 22.9907 0.940432 19.9577C0.267628 16.9247 0.457076 13.7603 1.48676 10.8322C2.51644 7.90413 4.34408 5.33263 6.75726 3.41656C9.17044 1.50049 12.0701 0.318536 15.1192 0.0080647C16.009 -0.0839353 16.7356 0.661265 16.7356 1.56746V14.7085C16.7356 15.617 17.4611 16.3519 18.3555 16.3519H31.3076ZM89.515 36.1445C90.8032 36.1445 92.0387 36.6637 92.9496 37.5878C93.8605 38.512 94.3723 39.7653 94.3723 41.0723C94.3723 42.3792 93.8605 43.6326 92.9496 44.5567C92.0387 45.4808 90.8032 46 89.515 46H81.4202C80.1319 46 78.8965 45.4808 77.9855 44.5567C77.0746 43.6326 76.5629 42.3792 76.5629 41.0723C76.5629 39.7653 77.0746 38.512 77.9855 37.5878C78.8965 36.6637 80.1319 36.1445 81.4202 36.1445H89.515ZM84.6576 32.859C93.6003 32.859 100.849 25.5047 100.849 16.4335C100.853 13.647 100.155 10.9057 98.8215 8.46976L101.497 5.75576C101.805 5.443 102.049 5.07173 102.216 4.66314C102.383 4.25456 102.468 3.81666 102.468 3.37445C102.468 2.93224 102.382 2.49439 102.215 2.08588C102.048 1.67738 101.804 1.30623 101.496 0.993615C101.187 0.681003 100.821 0.433055 100.419 0.263929C100.016 0.0948026 99.5842 0.00780928 99.1483 0.00791607C98.7124 0.00802287 98.2808 0.0952277 97.8782 0.264551C97.4755 0.433875 97.1096 0.682002 96.8015 0.994765L94.4664 3.36376C91.6492 1.18096 88.2013 0.0011281 84.6565 0.0069147C75.7161 0.0080647 68.4681 7.36001 68.4681 16.4335C68.4681 25.5047 75.7161 32.859 84.6576 32.859ZM134.851 16.4335C134.851 25.5047 127.602 32.859 118.659 32.859C109.717 32.859 102.468 25.5047 102.468 16.4335C102.468 7.36001 109.717 0.0080647 118.659 0.0080647C127.602 0.0080647 134.851 7.36116 134.851 16.4335Z" fill="url(#paint0_linear_60_308)"/>
</g>
<defs>
<linearGradient id="paint0_linear_60_308" x1="0.544924" y1="18.4" x2="135.439" y2="18.4" gradientUnits="userSpaceOnUse">
<stop stop-color="#64C2DB"/>
<stop offset="0.307" stop-color="#7476ED"/>
<stop offset="0.604" stop-color="#C994DF"/>
<stop offset="1" stop-color="#E56F8C"/>
</linearGradient>
<clipPath id="clip0_60_308">
<rect width="141.695" height="46" fill="white" transform="translate(0.544983)"/>
</clipPath>
</defs>
</svg>
