<svg width="187" height="37" viewBox="0 0 187 37" fill="none" xmlns="http://www.w3.org/2000/svg">
<g clip-path="url(#clip0_60_250)">
<path d="M73.6524 7.26575H69.7513V25.9545H80.5508V22.2925H73.6524V7.26575Z" fill="#459FD2"/>
<path d="M80.9234 19.6154C80.9234 23.6057 83.4449 26.2575 87.2508 26.2575C91.033 26.2575 93.5545 23.6057 93.5545 19.6154C93.5545 15.6251 91.033 12.948 87.2508 12.948C83.4449 12.948 80.9234 15.6251 80.9234 19.6154ZM84.6104 19.5901C84.6104 17.696 85.6571 16.4333 87.2508 16.4333C88.8208 16.4333 89.8675 17.696 89.8675 19.5901C89.8675 21.5096 88.8208 22.7723 87.2508 22.7723C85.6571 22.7723 84.6104 21.5096 84.6104 19.5901Z" fill="#459FD2"/>
<path d="M94.1438 19.4134C94.1438 23.2268 96.475 25.8028 99.7814 25.8028C101.375 25.8028 102.755 25.1967 103.445 24.2118V25.9544C103.445 27.697 102.422 28.8587 100.614 28.8587C98.9964 28.8587 97.8784 28.0506 97.807 26.6111H94.0962C94.4292 30.071 96.9507 32.3944 100.4 32.3944C104.467 32.3944 107.037 29.5912 107.037 25.1462V13.3269H103.73L103.54 14.6148C102.874 13.5794 101.47 12.8976 99.8528 12.8976C96.5225 12.8976 94.1438 15.5493 94.1438 19.4134ZM97.8546 19.3123C97.8546 17.4939 98.9964 16.2817 100.447 16.2817C102.136 16.2817 103.373 17.4687 103.373 19.3123C103.373 21.156 102.16 22.4187 100.471 22.4187C99.0202 22.4187 97.8546 21.156 97.8546 19.3123Z" fill="#459FD2"/>
<path d="M108.104 19.6154C108.104 23.6057 110.626 26.2575 114.432 26.2575C118.214 26.2575 120.735 23.6057 120.735 19.6154C120.735 15.6251 118.214 12.948 114.432 12.948C110.626 12.948 108.104 15.6251 108.104 19.6154ZM111.791 19.5901C111.791 17.696 112.838 16.4333 114.432 16.4333C116.001 16.4333 117.048 17.696 117.048 19.5901C117.048 21.5096 116.001 22.7723 114.432 22.7723C112.838 22.7723 111.791 21.5096 111.791 19.5901Z" fill="#459FD2"/>
<path d="M123.894 11.357C125.035 11.357 125.963 10.3721 125.963 9.13457C125.963 7.89707 125.035 6.93738 123.894 6.93738C122.728 6.93738 121.801 7.89707 121.801 9.13457C121.801 10.3721 122.728 11.357 123.894 11.357ZM122.038 25.9545H125.725V13.3269H122.038V25.9545Z" fill="#459FD2"/>
<path d="M127.872 32.0157H131.488V24.6917C132.177 25.6514 133.747 26.3081 135.389 26.3081C138.932 26.3081 141.074 23.429 140.979 19.4387C140.883 15.3726 138.671 12.9229 135.365 12.9229C133.676 12.9229 132.082 13.7057 131.416 14.8675L131.225 13.327H127.872V32.0157ZM131.558 19.6407C131.558 17.7466 132.748 16.4839 134.461 16.4839C136.197 16.4839 137.291 17.7718 137.291 19.6407C137.291 21.5096 136.197 22.7976 134.461 22.7976C132.748 22.7976 131.558 21.5348 131.558 19.6407Z" fill="#459FD2"/>
<path d="M141.369 21.9641C141.463 24.515 143.367 26.2827 146.364 26.2827C149.243 26.2827 151.241 24.6664 151.241 22.0652C151.241 20.1964 150.194 18.9588 148.243 18.4537L146.127 17.8981C145.365 17.6961 144.89 17.494 144.89 16.8373C144.89 16.1807 145.388 15.7514 146.127 15.7514C146.959 15.7514 147.505 16.3323 147.483 17.1909H150.789C150.693 14.5644 148.815 12.9229 146.198 12.9229C143.558 12.9229 141.583 14.5897 141.583 17.1152C141.583 18.8072 142.463 20.1964 144.818 20.853L146.911 21.4338C147.529 21.6106 147.791 21.9136 147.791 22.3429C147.791 22.9744 147.244 23.3785 146.316 23.3785C145.246 23.3785 144.675 22.8481 144.675 21.9641H141.369Z" fill="#459FD2"/>
<path d="M156.847 26.2828C158.299 26.2828 159.75 25.5756 160.487 24.5402L160.726 25.9545H164.175V13.327H160.511V19.8934C160.511 21.7874 159.988 22.8228 158.299 22.8228C156.99 22.8228 156.134 22.1915 156.134 19.8428V13.327H152.471V21.2571C152.471 24.2625 154.041 26.2828 156.847 26.2828Z" fill="#459FD2"/>
<path d="M169.984 25.9544V19.0598C169.984 16.9383 171.054 16.3322 172.101 16.3322C173.266 16.3322 174.027 17.0899 174.027 18.6557V25.9544H177.643V19.0598C177.643 16.9131 178.69 16.307 179.736 16.307C180.901 16.307 181.687 17.0646 181.687 18.6557V25.9544H185.255V17.696C185.255 14.817 183.828 12.8976 180.759 12.8976C179.047 12.8976 177.643 13.7814 177.024 15.1452C176.311 13.7814 175.074 12.8976 173.099 12.8976C171.791 12.8976 170.578 13.5289 169.865 14.5391L169.722 13.3269H166.296V25.9544H169.984Z" fill="#459FD2"/>
<path d="M0.0518799 18.5C0.0518799 8.28273 7.85326 0 17.4768 0H40.3469C49.9705 0 57.7718 8.28273 57.7718 18.5V37H17.4768C7.85326 37 0.0518799 28.7173 0.0518799 18.5Z" fill="#459FD2"/>
<path d="M40.3469 6.93738H17.4767C11.462 6.93738 6.58618 12.1141 6.58618 18.4999C6.58618 24.8857 11.462 30.0624 17.4767 30.0624H40.3469C46.3616 30.0624 51.2374 24.8857 51.2374 18.4999C51.2374 12.1141 46.3616 6.93738 40.3469 6.93738Z" fill="#D2D8F5"/>
<path d="M17.4767 24.2811C20.4841 24.2811 22.922 21.6928 22.922 18.4999C22.922 15.307 20.4841 12.7186 17.4767 12.7186C14.4694 12.7186 12.0315 15.307 12.0315 18.4999C12.0315 21.6928 14.4694 24.2811 17.4767 24.2811Z" fill="black"/>
<path d="M15.2986 17.3436C15.9001 17.3436 16.3877 16.826 16.3877 16.1874C16.3877 15.5488 15.9001 15.0311 15.2986 15.0311C14.6972 15.0311 14.2096 15.5488 14.2096 16.1874C14.2096 16.826 14.6972 17.3436 15.2986 17.3436Z" fill="white"/>
<path d="M41.4359 24.2811C44.4433 24.2811 46.8812 21.6928 46.8812 18.4999C46.8812 15.307 44.4433 12.7186 41.4359 12.7186C38.4286 12.7186 35.9907 15.307 35.9907 18.4999C35.9907 21.6928 38.4286 24.2811 41.4359 24.2811Z" fill="black"/>
<path d="M39.2578 17.3436C39.8593 17.3436 40.3469 16.826 40.3469 16.1874C40.3469 15.5488 39.8593 15.0311 39.2578 15.0311C38.6563 15.0311 38.1688 15.5488 38.1688 16.1874C38.1688 16.826 38.6563 17.3436 39.2578 17.3436Z" fill="white"/>
</g>
<defs>
<clipPath id="clip0_60_250">
<rect width="186.228" height="37" fill="white" transform="translate(0.0518799)"/>
</clipPath>
</defs>
</svg>
