<svg width="193" height="46" viewBox="0 0 193 46" fill="none" xmlns="http://www.w3.org/2000/svg">
<g clip-path="url(#clip0_60_266)">
<path d="M55.2445 33.3501H67.9372V29.6325H59.1149V12.2737H55.2445V33.3501Z" fill="#EEEEFF"/>
<path d="M75.5646 33.7891C77.1014 33.7891 78.4532 33.4378 79.62 32.7352C80.7963 32.0229 81.7117 31.0423 82.3663 29.7934C83.0303 28.5346 83.3624 27.0856 83.3624 25.4464C83.3624 23.8169 83.035 22.3777 82.3805 21.1286C81.7259 19.87 80.8105 18.8844 79.6342 18.1721C78.4674 17.4598 77.1109 17.1036 75.5646 17.1036C74.0468 17.1036 72.7044 17.455 71.5377 18.1575C70.3709 18.86 69.4554 19.8406 68.7913 21.0994C68.1273 22.3483 67.7953 23.7973 67.7953 25.4464C67.7953 27.0759 68.1178 28.52 68.7629 29.7787C69.4174 31.0277 70.3282 32.0083 71.495 32.7206C72.6618 33.4329 74.0184 33.7891 75.5646 33.7891ZM75.5646 30.0715C74.3598 30.0715 73.4445 29.6568 72.8184 28.8274C72.2017 27.9883 71.8934 26.8613 71.8934 25.4464C71.8934 24.0706 72.1875 22.9582 72.7757 22.1092C73.3732 21.2507 74.3029 20.8212 75.5646 20.8212C76.7884 20.8212 77.7085 21.2409 78.3251 22.08C78.9512 22.9192 79.2643 24.0412 79.2643 25.4464C79.2643 26.8027 78.956 27.915 78.3393 28.7835C77.7322 29.6421 76.8073 30.0715 75.5646 30.0715Z" fill="#EEEEFF"/>
<path d="M91.0164 33.7891C91.7374 33.7891 92.4014 33.7012 93.0086 33.5256C93.6252 33.35 94.1848 33.1012 94.6876 32.7792V34.3746C94.7066 34.96 94.5595 35.4479 94.2465 35.8382C93.9429 36.2383 93.5351 36.5359 93.0228 36.731C92.5105 36.936 91.965 37.0384 91.3864 37.0384C90.8456 37.0384 90.3429 36.9164 89.8781 36.6725C89.4227 36.4286 89.0717 36.0724 88.825 35.604L85.2393 37.3896C85.8274 38.4142 86.6669 39.2387 87.7579 39.8632C88.8488 40.4974 90.0488 40.8146 91.3579 40.8146C92.4868 40.8146 93.5351 40.6584 94.5026 40.3462C95.4702 40.0437 96.2861 39.5803 96.9501 38.9557C97.6236 38.3313 98.0838 37.536 98.3304 36.57C98.4157 36.2285 98.4726 35.8821 98.5011 35.5308C98.539 35.1893 98.558 34.8234 98.558 34.4331V17.5427H95.1714V18.421C94.6496 18.0013 94.0567 17.6793 93.3927 17.455C92.7381 17.2207 92.0125 17.1036 91.2156 17.1036C89.7453 17.1036 88.4646 17.4647 87.3737 18.1867C86.2827 18.9088 85.4337 19.8992 84.8266 21.158C84.2289 22.4069 83.9302 23.8364 83.9302 25.4464C83.9302 27.0271 84.2242 28.4468 84.8124 29.7056C85.41 30.9642 86.24 31.9596 87.3025 32.6914C88.3649 33.4232 89.6029 33.7891 91.0164 33.7891ZM91.6425 30.2471C90.8077 30.2471 90.1247 30.0324 89.5934 29.6031C89.0623 29.1738 88.6685 28.5981 88.4125 27.876C88.1563 27.1442 88.0282 26.3343 88.0282 25.4464C88.0282 24.5682 88.161 23.7681 88.4267 23.046C88.6923 22.3142 89.1002 21.7337 89.6503 21.3042C90.21 20.8652 90.9215 20.6456 91.7848 20.6456C92.9991 20.6456 93.867 21.0897 94.3888 21.9776C94.9106 22.8557 95.1714 24.012 95.1714 25.4464C95.1714 26.8807 94.9058 28.0419 94.3746 28.9298C93.8528 29.808 92.9422 30.2471 91.6425 30.2471Z" fill="#EEEEFF"/>
<path d="M107.751 33.7891C109.288 33.7891 110.64 33.4378 111.806 32.7352C112.982 32.0229 113.898 31.0423 114.552 29.7934C115.216 28.5346 115.548 27.0856 115.548 25.4464C115.548 23.8169 115.222 22.3777 114.567 21.1286C113.913 19.87 112.997 18.8844 111.821 18.1721C110.654 17.4598 109.297 17.1036 107.751 17.1036C106.233 17.1036 104.891 17.455 103.724 18.1575C102.557 18.86 101.642 19.8406 100.978 21.0994C100.314 22.3483 99.9817 23.7973 99.9817 25.4464C99.9817 27.0759 100.304 28.52 100.949 29.7787C101.604 31.0277 102.515 32.0083 103.681 32.7206C104.848 33.4329 106.205 33.7891 107.751 33.7891ZM107.751 30.0715C106.546 30.0715 105.631 29.6568 105.005 28.8274C104.388 27.9883 104.08 26.8613 104.08 25.4464C104.08 24.0706 104.374 22.9582 104.962 22.1092C105.56 21.2507 106.489 20.8212 107.751 20.8212C108.975 20.8212 109.895 21.2409 110.512 22.08C111.138 22.9192 111.451 24.0412 111.451 25.4464C111.451 26.8027 111.142 27.915 110.526 28.7835C109.919 29.6421 108.994 30.0715 107.751 30.0715Z" fill="#EEEEFF"/>
<path d="M117.254 15.3471H121.125V11.8345H117.254V15.3471ZM117.254 33.3499H121.125V17.5426H117.254V33.3499Z" fill="#EEEEFF"/>
<path d="M123.655 40.3755H127.554V32.7792C128.057 33.1012 128.611 33.35 129.218 33.5256C129.836 33.7012 130.504 33.7891 131.225 33.7891C132.639 33.7891 133.877 33.4232 134.939 32.6914C136.002 31.9596 136.827 30.9642 137.415 29.7056C138.013 28.4468 138.311 27.0271 138.311 25.4464C138.311 23.8364 138.008 22.4069 137.401 21.158C136.803 19.8992 135.959 18.9088 134.868 18.1867C133.777 17.4647 132.497 17.1036 131.026 17.1036C130.229 17.1036 129.499 17.2207 128.835 17.455C128.18 17.6793 127.592 18.0013 127.071 18.421V17.5427H123.655V40.3755ZM130.599 30.2471C129.309 30.2471 128.399 29.808 127.867 28.9298C127.336 28.0419 127.071 26.8807 127.071 25.4464C127.071 24.012 127.331 22.8557 127.853 21.9776C128.384 21.0897 129.252 20.6456 130.457 20.6456C131.32 20.6456 132.027 20.8652 132.577 21.3042C133.137 21.7337 133.55 22.3142 133.815 23.046C134.081 23.7681 134.214 24.5682 134.214 25.4464C134.214 26.3343 134.085 27.1442 133.829 27.876C133.573 28.5981 133.18 29.1738 132.649 29.6031C132.118 30.0324 131.434 30.2471 130.599 30.2471Z" fill="#EEEEFF"/>
<path d="M145.324 33.7891C147.334 33.7891 148.909 33.3257 150.047 32.3986C151.186 31.4716 151.755 30.1983 151.755 28.5786C151.755 27.3491 151.385 26.3783 150.646 25.666C149.914 24.9537 148.672 24.3632 146.917 23.895C145.722 23.5826 144.83 23.3289 144.241 23.1338C143.663 22.9387 143.279 22.7484 143.089 22.563C142.909 22.3777 142.819 22.1483 142.819 21.8751C142.819 21.4165 143.032 21.0653 143.459 20.8212C143.896 20.5773 144.47 20.4798 145.181 20.5286C146.689 20.6456 147.515 21.3092 147.657 22.5191L151.613 21.7872C151.414 20.353 150.73 19.2162 149.563 18.377C148.397 17.5281 146.908 17.1036 145.096 17.1036C143.236 17.1036 141.752 17.5525 140.641 18.4502C139.532 19.3479 138.977 20.5578 138.977 22.08C138.977 23.2899 139.361 24.2462 140.129 24.9487C140.897 25.6416 142.221 26.2367 144.099 26.7344C145.21 27.0369 146.025 27.2808 146.547 27.4662C147.078 27.6516 147.42 27.8419 147.571 28.037C147.723 28.2224 147.799 28.4713 147.799 28.7835C147.799 29.2811 147.609 29.6714 147.23 29.9544C146.851 30.2276 146.31 30.3642 145.608 30.3642C144.754 30.3642 144.047 30.1544 143.488 29.7348C142.938 29.3153 142.581 28.7347 142.42 27.9931L138.465 28.6078C138.721 30.2569 139.442 31.5351 140.628 32.4426C141.823 33.3403 143.388 33.7891 145.324 33.7891Z" fill="#EEEEFF"/>
<path d="M158.894 33.8184C160.005 33.8184 160.972 33.6281 161.798 33.2476C162.623 32.867 163.315 32.3597 163.875 31.7254V33.35H167.29V17.5427H163.391V25.5635C163.391 26.5393 163.281 27.3296 163.063 27.9346C162.856 28.5298 162.585 28.9835 162.253 29.2957C161.921 29.5983 161.565 29.8031 161.185 29.9105C160.806 30.0178 160.451 30.0715 160.119 30.0715C159.293 30.0715 158.653 29.8812 158.198 29.5007C157.752 29.1201 157.429 28.6469 157.23 28.081C157.031 27.5149 156.912 26.954 156.874 26.3977C156.836 25.8318 156.817 25.3684 156.817 25.0073V17.5427H152.889V26.4124C152.889 26.6758 152.908 27.0954 152.946 27.6711C152.984 28.2468 153.094 28.886 153.274 29.5885C153.454 30.2813 153.753 30.9497 154.171 31.5937C154.598 32.2377 155.19 32.7694 155.949 33.189C156.707 33.6086 157.69 33.8184 158.894 33.8184Z" fill="#EEEEFF"/>
<path d="M169.531 33.35H173.43V23.7777C173.43 22.8704 173.671 22.1337 174.155 21.5676C174.648 20.992 175.298 20.7041 176.105 20.7041C176.949 20.7041 177.609 20.9969 178.083 21.5824C178.566 22.1581 178.809 22.9679 178.809 24.012V33.35H182.679V23.7777C182.679 22.8704 182.921 22.1337 183.405 21.5676C183.898 20.992 184.548 20.7041 185.354 20.7041C186.199 20.7041 186.857 20.9969 187.331 21.5824C187.816 22.1581 188.058 22.9679 188.058 24.012V33.35H191.928V22.9581C191.928 21.231 191.477 19.8357 190.576 18.7721C189.685 17.6988 188.361 17.1621 186.606 17.1621C185.62 17.1621 184.714 17.3816 183.888 17.8207C183.063 18.2599 182.404 18.86 181.91 19.621C181.512 18.8795 180.943 18.2843 180.203 17.8354C179.463 17.3866 178.543 17.1621 177.442 17.1621C176.512 17.1621 175.659 17.3524 174.881 17.733C174.103 18.1037 173.458 18.6161 172.946 19.2697V17.5426H169.531V33.35Z" fill="#EEEEFF"/>
<path d="M22.781 0C10.4316 0 0.42041 10.2974 0.42041 23C12.7698 23 22.781 12.7026 22.781 0Z" fill="#45D2B0"/>
<path d="M22.7809 46C35.1303 46 45.1415 35.7026 45.1415 23C32.7921 23 22.7809 33.2974 22.7809 46Z" fill="#45D2B0"/>
<path d="M22.7809 0C35.1303 0 45.1415 10.2974 45.1415 23C32.7921 23 22.7809 12.7026 22.7809 0Z" fill="#EEEEFF"/>
<path d="M22.7809 46C10.4315 46 0.420287 35.7026 0.420288 23C12.7697 23 22.7809 33.2974 22.7809 46Z" fill="#EEEEFF"/>
</g>
<defs>
<clipPath id="clip0_60_266">
<rect width="192.301" height="46" fill="white" transform="translate(0.42041)"/>
</clipPath>
</defs>
</svg>
