<svg width="178" height="46" viewBox="0 0 178 46" fill="none" xmlns="http://www.w3.org/2000/svg">
<g clip-path="url(#clip0_60_236)">
<path d="M59.5527 11.8265H55.4828V30.4143H66.7496V26.7722H59.5527V11.8265Z" fill="#FFD84F"/>
<path d="M67.1382 24.1095C67.1382 28.0783 69.7688 30.7157 73.7394 30.7157C77.6852 30.7157 80.3158 28.0783 80.3158 24.1095C80.3158 20.1407 77.6852 17.4781 73.7394 17.4781C69.7688 17.4781 67.1382 20.1407 67.1382 24.1095ZM70.9847 24.0843C70.9847 22.2005 72.0767 20.9446 73.7394 20.9446C75.3773 20.9446 76.4693 22.2005 76.4693 24.0843C76.4693 25.9934 75.3773 27.2494 73.7394 27.2494C72.0767 27.2494 70.9847 25.9934 70.9847 24.0843Z" fill="#FFD84F"/>
<path d="M80.9306 23.9086C80.9306 27.7014 83.3627 30.2635 86.8122 30.2635C88.475 30.2635 89.9143 29.6606 90.6339 28.6811V30.4142C90.6339 32.1474 89.5668 33.3028 87.6808 33.3028C85.9932 33.3028 84.8268 32.4991 84.7524 31.0673H80.881C81.2284 34.5086 83.859 36.8194 87.4574 36.8194C91.701 36.8194 94.3812 34.0313 94.3812 29.6104V17.855H90.9317L90.7332 19.136C90.0383 18.1061 88.5741 17.428 86.8867 17.428C83.4123 17.428 80.9306 20.0654 80.9306 23.9086ZM84.802 23.8081C84.802 21.9995 85.9932 20.7938 87.507 20.7938C89.269 20.7938 90.5595 21.9744 90.5595 23.8081C90.5595 25.6417 89.2938 26.8977 87.5318 26.8977C86.0181 26.8977 84.802 25.6417 84.802 23.8081Z" fill="#FFD84F"/>
<path d="M95.4951 24.1095C95.4951 28.0783 98.1256 30.7157 102.096 30.7157C106.042 30.7157 108.673 28.0783 108.673 24.1095C108.673 20.1407 106.042 17.4781 102.096 17.4781C98.1256 17.4781 95.4951 20.1407 95.4951 24.1095ZM99.3417 24.0843C99.3417 22.2005 100.434 20.9446 102.096 20.9446C103.734 20.9446 104.826 22.2005 104.826 24.0843C104.826 25.9934 103.734 27.2494 102.096 27.2494C100.434 27.2494 99.3417 25.9934 99.3417 24.0843Z" fill="#FFD84F"/>
<path d="M111.968 15.8958C113.159 15.8958 114.127 14.9161 114.127 13.6853C114.127 12.4545 113.159 11.5 111.968 11.5C110.752 11.5 109.784 12.4545 109.784 13.6853C109.784 14.9161 110.752 15.8958 111.968 15.8958ZM110.032 30.4143H113.879V17.855H110.032V30.4143Z" fill="#FFD84F"/>
<path d="M116.118 36.4427H119.89V29.1584C120.609 30.1129 122.248 30.766 123.96 30.766C127.657 30.766 129.891 27.9025 129.792 23.9337C129.692 19.8896 127.384 17.4531 123.935 17.4531C122.173 17.4531 120.511 18.2318 119.815 19.3873L119.616 17.855H116.118V36.4427ZM119.964 24.1346C119.964 22.2508 121.205 20.9949 122.992 20.9949C124.803 20.9949 125.945 22.2759 125.945 24.1346C125.945 25.9935 124.803 27.2745 122.992 27.2745C121.205 27.2745 119.964 26.0186 119.964 24.1346Z" fill="#FFD84F"/>
<path d="M130.199 26.4455C130.298 28.9826 132.284 30.7408 135.41 30.7408C138.413 30.7408 140.498 29.1332 140.498 26.5461C140.498 24.6873 139.406 23.4565 137.37 22.954L135.163 22.4015C134.369 22.2006 133.872 21.9995 133.872 21.3464C133.872 20.6934 134.392 20.2664 135.163 20.2664C136.031 20.2664 136.601 20.8441 136.577 21.6981H140.027C139.927 19.0858 137.967 17.4531 135.237 17.4531C132.483 17.4531 130.423 19.111 130.423 21.6228C130.423 23.3057 131.341 24.6873 133.797 25.3404L135.981 25.918C136.626 26.0939 136.899 26.3953 136.899 26.8223C136.899 27.4503 136.329 27.8522 135.36 27.8522C134.244 27.8522 133.648 27.3247 133.648 26.4455H130.199Z" fill="#FFD84F"/>
<path d="M146.347 30.7409C147.862 30.7409 149.375 30.0375 150.144 29.0077L150.393 30.4144H153.992V17.8551H150.169V24.386C150.169 26.2698 149.624 27.2996 147.862 27.2996C146.496 27.2996 145.603 26.6717 145.603 24.3357V17.8551H141.781V25.7423C141.781 28.7315 143.419 30.7409 146.347 30.7409Z" fill="#FFD84F"/>
<path d="M160.052 30.4142V23.5569C160.052 21.4469 161.169 20.8441 162.261 20.8441C163.476 20.8441 164.271 21.5976 164.271 23.155V30.4142H168.043V23.5569C168.043 21.4218 169.135 20.819 170.226 20.819C171.442 20.819 172.261 21.5725 172.261 23.155V30.4142H175.985V22.2005C175.985 19.337 174.495 17.428 171.293 17.428C169.507 17.428 168.043 18.307 167.397 19.6635C166.653 18.307 165.362 17.428 163.303 17.428C161.938 17.428 160.672 18.0559 159.928 19.0606L159.779 17.855H156.205V30.4142H160.052Z" fill="#FFD84F"/>
<path d="M0.94635 23C0.94635 12.1577 0.94635 6.73654 4.27413 3.36827C7.60191 0 12.9579 0 23.6699 0C34.3819 0 39.7378 0 43.0656 3.36827C46.3934 6.73654 46.3934 12.1577 46.3934 23C46.3934 33.8423 46.3934 39.2634 43.0656 42.6318C39.7378 46 34.3819 46 23.6699 46C12.9579 46 7.60191 46 4.27413 42.6318C0.94635 39.2634 0.94635 33.8423 0.94635 23Z" fill="#FFD84F"/>
<path d="M28.2145 29.9C28.8421 29.9 29.3622 30.4199 29.2376 31.0424C29.0173 32.1418 28.4821 33.1608 27.6868 33.9658C26.6215 35.0442 25.1765 35.65 23.6698 35.65C22.1632 35.65 20.7183 35.0442 19.6529 33.9658C18.8576 33.1608 18.3224 32.1418 18.1022 31.0424C17.9775 30.4199 18.4976 29.9 19.1251 29.9H28.2145Z" fill="#3F3F3F"/>
<path d="M30.6031 20.4429C29.997 20.6073 29.6258 21.2491 29.9331 21.8028C30.2566 22.3856 30.704 22.8943 31.2483 23.2891C32.103 23.9089 33.1435 24.2097 34.1927 24.1401C35.2419 24.0705 36.2348 23.6349 37.0022 22.9074C37.7697 22.1799 38.264 21.2055 38.4013 20.1504C38.5385 19.0952 38.3101 18.0246 37.7549 17.1208C37.1996 16.2171 36.3519 15.5362 35.3563 15.1941C34.3607 14.852 33.2787 14.8699 32.2947 15.2448C31.6679 15.4835 31.1058 15.8576 30.6442 16.3358C30.2058 16.7902 30.4002 17.5074 30.9436 17.8249L31.52 18.1618C32.3966 18.6741 32.2238 20.0034 31.246 20.2686L30.6031 20.4429Z" fill="#3F3F3F"/>
<path d="M16.7366 20.4429C17.3428 20.6073 17.714 21.2491 17.4066 21.8028C17.0832 22.3856 16.6357 22.8943 16.0915 23.2891C15.2369 23.9089 14.1963 24.2097 13.1471 24.1401C12.0979 24.0705 11.105 23.6349 10.3376 22.9074C9.57018 22.1799 9.07572 21.2055 8.93849 20.1504C8.80125 19.0952 9.0297 18.0246 9.58494 17.1208C10.1402 16.2171 10.9878 15.5362 11.9835 15.1941C12.9791 14.852 14.0612 14.8699 15.0452 15.2448C15.6718 15.4835 16.2341 15.8576 16.6956 16.3358C17.1341 16.7902 16.9396 17.5074 16.3961 17.8249L15.8197 18.1618C14.9432 18.6741 15.1161 20.0034 16.0938 20.2686L16.7366 20.4429Z" fill="#3F3F3F"/>
</g>
<defs>
<clipPath id="clip0_60_236">
<rect width="176.107" height="46" fill="white" transform="translate(0.94635)"/>
</clipPath>
</defs>
</svg>
