<svg width="195" height="47" viewBox="0 0 195 47" fill="none" xmlns="http://www.w3.org/2000/svg">
<g clip-path="url(#clip0_60_280)">
<path d="M57.6584 33.1894H71.4832V29.0626H62.572V13.5182H57.6584V33.1894Z" fill="#EBAC7F"/>
<path d="M79.6741 30.4382C77.7031 30.4382 76.6759 28.7325 76.6759 26.1738C76.6759 23.6152 77.7031 21.8819 79.6741 21.8819C81.6451 21.8819 82.7 23.6152 82.7 26.1738C82.7 28.7325 81.6451 30.4382 79.6741 30.4382ZM79.7018 33.6296C84.2824 33.6296 87.2805 30.4107 87.2805 26.1738C87.2805 21.9369 84.2824 18.718 79.7018 18.718C75.1491 18.718 72.0954 21.9369 72.0954 26.1738C72.0954 30.4107 75.1491 33.6296 79.7018 33.6296Z" fill="#EBAC7F"/>
<path d="M95.2089 38.0591C97.3188 38.0591 99.1787 37.5914 100.428 36.4909C101.566 35.473 102.316 33.9323 102.316 31.8139V19.1032H97.985V20.6164H97.9295C97.0967 19.4334 95.8197 18.6906 93.9319 18.6906C90.4063 18.6906 87.9634 21.6068 87.9634 25.7337C87.9634 30.0531 90.9338 32.4191 94.1263 32.4191C95.8474 32.4191 96.9301 31.7313 97.7629 30.7959H97.874V32.199C97.874 33.9048 97.0689 34.8952 95.1534 34.8952C93.6543 34.8952 92.9048 34.2625 92.6549 33.5196H88.2687C88.7129 36.4634 91.2947 38.0591 95.2089 38.0591ZM95.1812 29.0902C93.4878 29.0902 92.3773 27.7146 92.3773 25.5961C92.3773 23.4502 93.4878 22.0746 95.1812 22.0746C97.0689 22.0746 98.0683 23.6703 98.0683 25.5686C98.0683 27.5495 97.1522 29.0902 95.1812 29.0902Z" fill="#EBAC7F"/>
<path d="M111.22 30.4382C109.249 30.4382 108.222 28.7325 108.222 26.1738C108.222 23.6152 109.249 21.8819 111.22 21.8819C113.191 21.8819 114.246 23.6152 114.246 26.1738C114.246 28.7325 113.191 30.4382 111.22 30.4382ZM111.248 33.6296C115.829 33.6296 118.826 30.4107 118.826 26.1738C118.826 21.9369 115.829 18.718 111.248 18.718C106.695 18.718 103.642 21.9369 103.642 26.1738C103.642 30.4107 106.695 33.6296 111.248 33.6296Z" fill="#EBAC7F"/>
<path d="M120.148 33.1894H124.673V19.1032H120.148V33.1894ZM120.148 17.1498H124.673V13.5182H120.148V17.1498Z" fill="#EBAC7F"/>
<path d="M126.636 37.839H131.161V31.7313H131.217C132.105 32.9144 133.41 33.6297 135.242 33.6297C138.962 33.6297 141.433 30.7134 141.433 26.1464C141.433 21.9095 139.129 18.6906 135.353 18.6906C133.41 18.6906 132.022 19.5434 131.05 20.809H130.967V19.1032H126.636V37.839ZM134.076 30.1631C132.133 30.1631 131.023 28.5949 131.023 26.3114C131.023 24.0279 132.022 22.2947 133.993 22.2947C135.936 22.2947 136.852 23.8904 136.852 26.3114C136.852 28.705 135.797 30.1631 134.076 30.1631Z" fill="#EBAC7F"/>
<path d="M148.8 33.6297C152.52 33.6297 155.268 32.034 155.268 28.9526C155.268 25.3485 152.325 24.7157 149.827 24.303C148.023 23.9729 146.412 23.8353 146.412 22.8449C146.412 21.9645 147.273 21.5518 148.383 21.5518C149.633 21.5518 150.493 21.937 150.66 23.2026H154.824C154.602 20.4238 152.436 18.6906 148.411 18.6906C145.052 18.6906 142.276 20.2312 142.276 23.2026C142.276 26.504 144.913 27.1643 147.384 27.577C149.272 27.9071 150.993 28.0447 150.993 29.3103C150.993 30.2182 150.132 30.7134 148.772 30.7134C147.273 30.7134 146.329 30.0256 146.163 28.6225H141.887C142.026 31.7313 144.636 33.6297 148.8 33.6297Z" fill="#EBAC7F"/>
<path d="M161.415 33.6022C163.386 33.6022 164.635 32.8319 165.662 31.4562H165.745V33.1895H170.076V19.1033H165.551V26.9718C165.551 28.65 164.607 29.8055 163.053 29.8055C161.609 29.8055 160.915 28.9526 160.915 27.412V19.1033H156.418V28.3474C156.418 31.4838 158.139 33.6022 161.415 33.6022Z" fill="#EBAC7F"/>
<path d="M172.045 33.1895H176.57V25.2935C176.57 23.6152 177.403 22.4322 178.818 22.4322C180.179 22.4322 180.817 23.3126 180.817 24.8258V33.1895H185.342V25.2935C185.342 23.6152 186.147 22.4322 187.591 22.4322C188.951 22.4322 189.59 23.3126 189.59 24.8258V33.1895H194.115V24.0279C194.115 20.864 192.504 18.6906 189.284 18.6906C187.452 18.6906 185.925 19.4609 184.815 21.1666H184.759C184.037 19.6535 182.622 18.6906 180.762 18.6906C178.707 18.6906 177.347 19.6535 176.459 21.1116H176.375V19.1032H172.045V33.1895Z" fill="#EBAC7F"/>
<path d="M30.0508 2.26619L25.5015 1.05811L21.6677 15.2379L18.2065 2.43628L13.6571 3.64437L17.3967 17.4755L8.08225 8.2445L4.7519 11.545L14.9687 21.6704L2.2453 18.2917L1.02631 22.8003L14.9282 26.492C14.7691 25.8116 14.6848 25.1027 14.6848 24.3743C14.6848 19.2185 18.9022 15.039 24.1045 15.039C29.3069 15.039 33.5242 19.2185 33.5242 24.3743C33.5242 25.098 33.441 25.8025 33.2839 26.4789L45.9181 29.8339L47.137 25.3253L33.1799 21.619L45.9041 18.24L44.6851 13.7315L30.7285 17.4376L40.0429 8.2066L36.7125 4.90606L26.6375 14.891L30.0508 2.26619Z" fill="#F97316"/>
<path d="M33.2715 26.5315C32.8814 28.1657 32.058 29.6338 30.9281 30.8101L40.0811 39.8812L43.4114 36.5807L33.2715 26.5315Z" fill="#F97316"/>
<path d="M30.8356 30.905C29.6921 32.0625 28.2471 32.9263 26.6265 33.3714L29.9571 45.69L34.5064 44.4818L30.8356 30.905Z" fill="#F97316"/>
<path d="M26.4565 33.4164C25.7047 33.608 24.9166 33.7098 24.1045 33.7098C23.2344 33.7098 22.3919 33.5929 21.592 33.374L18.2584 45.7038L22.8077 46.9119L26.4565 33.4164Z" fill="#F97316"/>
<path d="M21.4313 33.3285C19.8355 32.8612 18.4161 31.9865 17.296 30.8257L8.12048 39.919L11.4508 43.2196L21.4313 33.3285Z" fill="#F97316"/>
<path d="M17.2194 30.7454C16.1185 29.5773 15.3166 28.1288 14.9349 26.5198L2.25934 29.8858L3.47832 34.3943L17.2194 30.7454Z" fill="#F97316"/>
</g>
<defs>
<clipPath id="clip0_60_280">
<rect width="194.325" height="47" fill="white" transform="translate(0.65918)"/>
</clipPath>
</defs>
</svg>
