<svg width="245" height="52" viewBox="0 0 245 52" fill="none" xmlns="http://www.w3.org/2000/svg">
<g clip-path="url(#clip0_500_200)">
<path d="M109.191 25.8643C108.964 25.8643 108.768 25.7921 108.603 25.6477C108.459 25.4828 108.387 25.2869 108.387 25.0601V10.5848C108.387 10.358 108.459 10.1724 108.603 10.0281C108.768 9.86312 108.964 9.78064 109.191 9.78064H113.428C113.655 9.78064 113.841 9.86312 113.985 10.0281C114.15 10.1724 114.232 10.358 114.232 10.5848V11.6055C114.624 11.1106 115.191 10.6467 115.934 10.2137C116.676 9.76003 117.552 9.51259 118.563 9.47134C120.975 9.40948 122.604 10.2755 123.45 12.0695C123.924 11.3271 124.594 10.7085 125.46 10.2137C126.347 9.71878 127.285 9.47134 128.275 9.47134C129.347 9.47134 130.306 9.71878 131.151 10.2137C132.017 10.6879 132.708 11.4302 133.223 12.4406C133.739 13.4304 133.997 14.7294 133.997 16.3378V25.0601C133.997 25.2869 133.914 25.4828 133.749 25.6477C133.605 25.7921 133.419 25.8643 133.193 25.8643H128.677C128.45 25.8643 128.254 25.7921 128.089 25.6477C127.945 25.4828 127.873 25.2869 127.873 25.0601V16.5234C127.873 15.9873 127.79 15.5646 127.625 15.2553C127.46 14.9253 127.244 14.6882 126.976 14.5439C126.728 14.3789 126.429 14.2964 126.079 14.2964C125.749 14.2964 125.45 14.3789 125.182 14.5439C124.914 14.6882 124.697 14.9253 124.532 15.2553C124.388 15.5646 124.316 15.9873 124.316 16.5234V25.0601C124.316 25.2869 124.233 25.4828 124.068 25.6477C123.924 25.7921 123.738 25.8643 123.511 25.8643H118.996C118.769 25.8643 118.573 25.7921 118.408 25.6477C118.264 25.4828 118.191 25.2869 118.191 25.0601V16.5234C118.191 15.9873 118.109 15.5646 117.944 15.2553C117.779 14.9253 117.563 14.6882 117.295 14.5439C117.047 14.3789 116.748 14.2964 116.398 14.2964C116.068 14.2964 115.769 14.3789 115.501 14.5439C115.233 14.7088 115.016 14.946 114.851 15.2553C114.686 15.5646 114.604 15.9873 114.604 16.5234V25.0601C114.604 25.2869 114.521 25.4828 114.356 25.6477C114.212 25.7921 114.026 25.8643 113.799 25.8643H109.191ZM142.031 26.1736C140.897 26.1736 139.876 25.957 138.969 25.524C138.082 25.091 137.381 24.5136 136.866 23.7919C136.371 23.0496 136.123 22.2248 136.123 21.3175C136.123 19.8329 136.721 18.6679 137.917 17.8225C139.134 16.9564 140.753 16.3584 142.773 16.0285L146.361 15.4718V15.2553C146.361 14.616 146.258 14.1418 146.052 13.8325C145.846 13.5026 145.433 13.3376 144.815 13.3376C144.382 13.3376 144.031 13.4201 143.763 13.585C143.495 13.75 143.248 13.9871 143.021 14.2964C142.815 14.5232 142.547 14.6367 142.217 14.6367H137.856C137.649 14.6367 137.474 14.5748 137.33 14.4511C137.206 14.3274 137.154 14.1624 137.175 13.9562C137.196 13.585 137.35 13.152 137.639 12.6571C137.928 12.1416 138.371 11.6468 138.969 11.1725C139.588 10.6776 140.381 10.2755 141.351 9.96623C142.32 9.63631 143.485 9.47134 144.846 9.47134C146.227 9.47134 147.413 9.62599 148.403 9.93529C149.392 10.2446 150.207 10.6776 150.846 11.2344C151.485 11.7911 151.96 12.4716 152.269 13.2757C152.578 14.0593 152.733 14.9356 152.733 15.9048V25.0601C152.733 25.2869 152.65 25.4828 152.485 25.6477C152.341 25.7921 152.155 25.8643 151.929 25.8643H147.444C147.217 25.8643 147.021 25.7921 146.856 25.6477C146.691 25.4828 146.609 25.2869 146.609 25.0601V24.0703C146.341 24.4827 145.98 24.8436 145.526 25.1529C145.093 25.4622 144.578 25.7096 143.98 25.8952C143.402 26.0808 142.753 26.1736 142.031 26.1736ZM143.825 22.1217C144.34 22.1217 144.794 22.0186 145.186 21.8124C145.578 21.5856 145.877 21.2454 146.083 20.7917C146.31 20.3381 146.423 19.771 146.423 19.0906V18.8741L144.196 19.3071C143.433 19.4514 142.897 19.6576 142.588 19.9257C142.278 20.1938 142.124 20.5031 142.124 20.8536C142.124 21.101 142.196 21.3175 142.34 21.5031C142.485 21.6887 142.681 21.8434 142.928 21.9671C143.196 22.0702 143.495 22.1217 143.825 22.1217ZM156.613 25.8643C156.386 25.8643 156.19 25.7921 156.025 25.6477C155.881 25.4828 155.809 25.2869 155.809 25.0601V10.5848C155.809 10.358 155.881 10.1724 156.025 10.0281C156.19 9.86312 156.386 9.78064 156.613 9.78064H161.098C161.325 9.78064 161.51 9.86312 161.654 10.0281C161.819 10.1724 161.902 10.358 161.902 10.5848V11.7292C162.521 11.1313 163.222 10.657 164.005 10.3065C164.809 9.95591 165.686 9.78064 166.634 9.78064H168.026C168.253 9.78064 168.449 9.86312 168.614 10.0281C168.779 10.1724 168.861 10.358 168.861 10.5848V14.5748C168.861 14.8016 168.779 14.9975 168.614 15.1625C168.449 15.3068 168.253 15.379 168.026 15.379H164.562C163.82 15.379 163.253 15.5749 162.861 15.9666C162.469 16.3584 162.273 16.9255 162.273 17.6678V25.0601C162.273 25.2869 162.191 25.4828 162.026 25.6477C161.881 25.7921 161.696 25.8643 161.469 25.8643H156.613ZM171.655 25.8643C171.428 25.8643 171.232 25.7921 171.067 25.6477C170.923 25.4828 170.851 25.2869 170.851 25.0601V4.70812C170.851 4.4813 170.923 4.29572 171.067 4.15138C171.232 3.98642 171.428 3.90394 171.655 3.90394H176.14C176.367 3.90394 176.552 3.98642 176.697 4.15138C176.862 4.29572 176.944 4.4813 176.944 4.70812V14.915L180.47 10.3065C180.553 10.2034 180.666 10.0899 180.81 9.96623C180.955 9.8425 181.161 9.78064 181.429 9.78064H186.625C186.831 9.78064 186.996 9.85281 187.12 9.99716C187.264 10.1209 187.337 10.2858 187.337 10.492C187.337 10.5745 187.316 10.6673 187.275 10.7704C187.254 10.8735 187.213 10.9457 187.151 10.9869L182.233 17.0183L187.924 24.6889C188.027 24.8539 188.079 25.0085 188.079 25.1529C188.079 25.3591 188.007 25.5343 187.862 25.6787C187.739 25.8024 187.574 25.8643 187.367 25.8643H181.986C181.676 25.8643 181.45 25.8024 181.305 25.6787C181.181 25.5343 181.068 25.4209 180.965 25.3384L176.944 19.771V25.0601C176.944 25.2869 176.862 25.4828 176.697 25.6477C176.552 25.7921 176.367 25.8643 176.14 25.8643H171.655ZM197.012 26.1736C194.435 26.1736 192.383 25.5137 190.857 24.194C189.352 22.8537 188.578 20.8124 188.537 18.0699C188.537 17.9874 188.537 17.8843 188.537 17.7606C188.537 17.6163 188.537 17.5132 188.537 17.4513C188.599 15.7398 188.97 14.2964 189.651 13.1211C190.352 11.9251 191.321 11.0178 192.558 10.3992C193.816 9.78065 195.29 9.47134 196.981 9.47134C198.878 9.47134 200.445 9.85281 201.683 10.6158C202.94 11.3581 203.879 12.3581 204.497 13.616C205.116 14.8532 205.425 16.245 205.425 17.7915V18.6576C205.425 18.8638 205.343 19.0493 205.178 19.2143C205.013 19.3793 204.817 19.4617 204.59 19.4617H195.063C195.063 19.4617 195.063 19.4824 195.063 19.5236C195.063 19.5648 195.063 19.6061 195.063 19.6473C195.063 20.1422 195.125 20.5855 195.249 20.9773C195.393 21.3485 195.61 21.6475 195.899 21.8743C196.187 22.0805 196.538 22.1836 196.95 22.1836C197.218 22.1836 197.445 22.1423 197.631 22.0599C197.816 21.9774 197.981 21.8743 198.126 21.7506C198.27 21.6062 198.394 21.4722 198.497 21.3485C198.682 21.1629 198.827 21.0495 198.93 21.0082C199.053 20.9464 199.239 20.9155 199.486 20.9155H204.342C204.528 20.9155 204.683 20.9773 204.806 21.101C204.951 21.2248 205.013 21.3794 204.992 21.565C204.971 21.9361 204.796 22.3898 204.466 22.9259C204.136 23.4414 203.641 23.9466 202.982 24.4415C202.342 24.9364 201.518 25.3488 200.507 25.6787C199.497 26.0086 198.332 26.1736 197.012 26.1736ZM195.063 15.9976H198.899V15.9357C198.899 15.379 198.827 14.9047 198.682 14.5129C198.538 14.1212 198.321 13.8325 198.033 13.6469C197.744 13.4407 197.394 13.3376 196.981 13.3376C196.569 13.3376 196.218 13.4407 195.93 13.6469C195.641 13.8325 195.424 14.1212 195.28 14.5129C195.136 14.9047 195.063 15.379 195.063 15.9357V15.9976ZM217.036 25.8643C215.634 25.8643 214.397 25.6581 213.325 25.2457C212.273 24.8333 211.448 24.1631 210.85 23.2352C210.273 22.2867 209.984 21.0392 209.984 19.4927V14.5129H207.541C207.314 14.5129 207.118 14.4408 206.953 14.2964C206.809 14.1315 206.736 13.9356 206.736 13.7088V10.5848C206.736 10.358 206.809 10.1724 206.953 10.0281C207.118 9.86312 207.314 9.78064 207.541 9.78064H209.984V4.70812C209.984 4.4813 210.056 4.29572 210.201 4.15138C210.366 3.98642 210.561 3.90394 210.788 3.90394H215.273C215.5 3.90394 215.686 3.98642 215.83 4.15138C215.995 4.29572 216.077 4.4813 216.077 4.70812V9.78064H219.974C220.201 9.78064 220.387 9.86312 220.531 10.0281C220.696 10.1724 220.779 10.358 220.779 10.5848V13.7088C220.779 13.9356 220.696 14.1315 220.531 14.2964C220.387 14.4408 220.201 14.5129 219.974 14.5129H216.077V18.9669C216.077 19.5648 216.201 20.0391 216.448 20.3896C216.696 20.7196 217.088 20.8845 217.624 20.8845H220.222C220.449 20.8845 220.634 20.967 220.779 21.132C220.944 21.2763 221.026 21.4619 221.026 21.6887V25.0601C221.026 25.2869 220.944 25.4828 220.779 25.6477C220.634 25.7921 220.449 25.8643 220.222 25.8643H217.036ZM224.212 25.8643C223.985 25.8643 223.789 25.7921 223.624 25.6477C223.48 25.4828 223.408 25.2869 223.408 25.0601V10.5848C223.408 10.358 223.48 10.1724 223.624 10.0281C223.789 9.86312 223.985 9.78064 224.212 9.78064H228.79C229.016 9.78064 229.212 9.86312 229.377 10.0281C229.542 10.1724 229.625 10.358 229.625 10.5848V25.0601C229.625 25.2869 229.542 25.4828 229.377 25.6477C229.212 25.7921 229.016 25.8643 228.79 25.8643H224.212ZM224.274 7.77019C224.047 7.77019 223.851 7.69802 223.686 7.55368C223.542 7.38872 223.47 7.19283 223.47 6.96601V3.71836C223.47 3.49154 223.542 3.29565 223.686 3.13069C223.851 2.96573 224.047 2.88325 224.274 2.88325H228.728C228.954 2.88325 229.15 2.96573 229.315 3.13069C229.48 3.29565 229.563 3.49154 229.563 3.71836V6.96601C229.563 7.19283 229.48 7.38872 229.315 7.55368C229.15 7.69802 228.954 7.77019 228.728 7.77019H224.274ZM233.575 19.2143C233.369 19.2143 233.183 19.1421 233.018 18.9978C232.853 18.8328 232.771 18.6369 232.771 18.4101V14.7604C232.771 14.5336 232.853 14.348 233.018 14.2036C233.183 14.0387 233.369 13.9562 233.575 13.9562H243.472C243.699 13.9562 243.885 14.0387 244.029 14.2036C244.194 14.348 244.277 14.5336 244.277 14.7604V18.4101C244.277 18.6369 244.194 18.8328 244.029 18.9978C243.885 19.1421 243.699 19.2143 243.472 19.2143H233.575Z" fill="#E33D5C"/>
<path d="M114.202 46.8643C113.892 46.8643 113.665 46.7818 113.521 46.6168C113.377 46.4519 113.253 46.2766 113.15 46.091L107.242 31.7395C107.222 31.657 107.211 31.5745 107.211 31.492C107.211 31.3065 107.284 31.1415 107.428 30.9972C107.572 30.8528 107.737 30.7806 107.923 30.7806H112.315C112.603 30.7806 112.82 30.8631 112.964 31.0281C113.109 31.1724 113.212 31.3168 113.274 31.4611L116.243 39.8431L119.243 31.4611C119.305 31.3168 119.408 31.1724 119.552 31.0281C119.697 30.8631 119.913 30.7806 120.202 30.7806H124.563C124.769 30.7806 124.934 30.8528 125.058 30.9972C125.202 31.1415 125.274 31.3065 125.274 31.492C125.274 31.5745 125.264 31.657 125.244 31.7395L119.367 46.091C119.284 46.2766 119.161 46.4519 118.996 46.6168C118.851 46.7818 118.625 46.8643 118.315 46.8643H114.202ZM134.608 47.1736C132.031 47.1736 129.979 46.5137 128.453 45.194C126.948 43.8537 126.175 41.8124 126.134 39.0699C126.134 38.9874 126.134 38.8843 126.134 38.7606C126.134 38.6163 126.134 38.5132 126.134 38.4513C126.195 36.7398 126.567 35.2964 127.247 34.1211C127.948 32.9251 128.917 32.0178 130.154 31.3992C131.412 30.7806 132.887 30.4713 134.577 30.4713C136.474 30.4713 138.042 30.8528 139.279 31.6158C140.537 32.3581 141.475 33.3581 142.093 34.616C142.712 35.8532 143.021 37.245 143.021 38.7915V39.6576C143.021 39.8638 142.939 40.0493 142.774 40.2143C142.609 40.3793 142.413 40.4617 142.186 40.4617H132.66C132.66 40.4617 132.66 40.4824 132.66 40.5236C132.66 40.5648 132.66 40.6061 132.66 40.6473C132.66 41.1422 132.722 41.5855 132.845 41.9773C132.99 42.3485 133.206 42.6475 133.495 42.8743C133.784 43.0805 134.134 43.1836 134.546 43.1836C134.815 43.1836 135.041 43.1423 135.227 43.0599C135.413 42.9774 135.577 42.8743 135.722 42.7506C135.866 42.6062 135.99 42.4722 136.093 42.3485C136.279 42.1629 136.423 42.0495 136.526 42.0082C136.65 41.9464 136.835 41.9155 137.083 41.9155H141.939C142.124 41.9155 142.279 41.9773 142.403 42.101C142.547 42.2248 142.609 42.3794 142.588 42.565C142.568 42.9361 142.392 43.3898 142.062 43.9259C141.733 44.4414 141.238 44.9466 140.578 45.4415C139.939 45.9364 139.114 46.3488 138.103 46.6787C137.093 47.0086 135.928 47.1736 134.608 47.1736ZM132.66 36.9976H136.495V36.9357C136.495 36.379 136.423 35.9047 136.279 35.5129C136.134 35.1212 135.918 34.8325 135.629 34.6469C135.34 34.4407 134.99 34.3376 134.577 34.3376C134.165 34.3376 133.814 34.4407 133.526 34.6469C133.237 34.8325 133.021 35.1212 132.876 35.5129C132.732 35.9047 132.66 36.379 132.66 36.9357V36.9976ZM146.373 46.8643C146.147 46.8643 145.951 46.7921 145.786 46.6477C145.641 46.4828 145.569 46.2869 145.569 46.0601V31.5848C145.569 31.358 145.641 31.1724 145.786 31.0281C145.951 30.8631 146.147 30.7806 146.373 30.7806H150.858C151.085 30.7806 151.271 30.8631 151.415 31.0281C151.58 31.1724 151.662 31.358 151.662 31.5848V32.7292C152.281 32.1313 152.982 31.657 153.766 31.3065C154.57 30.9559 155.446 30.7806 156.395 30.7806H157.787C158.013 30.7806 158.209 30.8631 158.374 31.0281C158.539 31.1724 158.622 31.358 158.622 31.5848V35.5748C158.622 35.8016 158.539 35.9975 158.374 36.1625C158.209 36.3068 158.013 36.379 157.787 36.379H154.322C153.58 36.379 153.013 36.5749 152.621 36.9666C152.229 37.3584 152.034 37.9255 152.034 38.6678V46.0601C152.034 46.2869 151.951 46.4828 151.786 46.6477C151.642 46.7921 151.456 46.8643 151.229 46.8643H146.373ZM167.694 47.1736C166.292 47.1736 165.096 47.0292 164.106 46.7405C163.117 46.4312 162.302 46.0498 161.663 45.5961C161.044 45.1425 160.591 44.6785 160.302 44.2043C160.013 43.7094 159.859 43.2764 159.838 42.9052C159.817 42.6784 159.879 42.4928 160.024 42.3485C160.189 42.1835 160.364 42.101 160.549 42.101H165.034C165.055 42.101 165.086 42.1113 165.127 42.132C165.168 42.132 165.21 42.1526 165.251 42.1938C165.519 42.2763 165.766 42.4103 165.993 42.5959C166.241 42.7815 166.509 42.9465 166.797 43.0908C167.107 43.2351 167.467 43.3073 167.88 43.3073C168.23 43.3073 168.54 43.2351 168.808 43.0908C169.096 42.9258 169.241 42.699 169.241 42.4103C169.241 42.1629 169.158 41.9464 168.993 41.7608C168.849 41.5752 168.529 41.4 168.035 41.235C167.54 41.0494 166.746 40.8535 165.653 40.6473C164.643 40.4411 163.715 40.1421 162.869 39.7504C162.044 39.338 161.385 38.7915 160.89 38.1111C160.415 37.4306 160.178 36.5955 160.178 35.6057C160.178 34.7603 160.457 33.9458 161.013 33.1623C161.57 32.3787 162.395 31.7395 163.488 31.2446C164.601 30.7291 165.962 30.4713 167.571 30.4713C168.787 30.4713 169.859 30.6157 170.787 30.9044C171.736 31.193 172.53 31.5539 173.169 31.9869C173.829 32.4199 174.324 32.8839 174.654 33.3788C175.004 33.8736 175.19 34.317 175.21 34.7088C175.231 34.9356 175.169 35.1315 175.025 35.2964C174.88 35.4408 174.715 35.5129 174.53 35.5129H170.478C170.416 35.5129 170.344 35.5129 170.261 35.5129C170.2 35.4923 170.148 35.4614 170.107 35.4201C169.818 35.3583 169.55 35.2449 169.303 35.0799C169.076 34.8943 168.828 34.7294 168.56 34.585C168.292 34.4201 167.952 34.3376 167.54 34.3376C167.189 34.3376 166.9 34.4201 166.674 34.585C166.467 34.75 166.364 34.9665 166.364 35.2346C166.364 35.4614 166.436 35.6676 166.581 35.8532C166.725 36.0387 167.055 36.214 167.571 36.379C168.086 36.5439 168.901 36.7192 170.014 36.9048C171.457 37.1316 172.612 37.5131 173.478 38.0492C174.344 38.5647 174.963 39.173 175.334 39.8741C175.705 40.5752 175.891 41.2762 175.891 41.9773C175.891 43.0289 175.571 43.9465 174.932 44.7301C174.313 45.5136 173.385 46.1219 172.148 46.555C170.932 46.9674 169.447 47.1736 167.694 47.1736ZM186.199 47.1736C183.621 47.1736 181.569 46.5137 180.044 45.194C178.538 43.8537 177.765 41.8124 177.724 39.0699C177.724 38.9874 177.724 38.8843 177.724 38.7606C177.724 38.6163 177.724 38.5132 177.724 38.4513C177.786 36.7398 178.157 35.2964 178.837 34.1211C179.538 32.9251 180.508 32.0178 181.745 31.3992C183.003 30.7806 184.477 30.4713 186.168 30.4713C188.065 30.4713 189.632 30.8528 190.869 31.6158C192.127 32.3581 193.065 33.3581 193.684 34.616C194.302 35.8532 194.612 37.245 194.612 38.7915V39.6576C194.612 39.8638 194.529 40.0493 194.364 40.2143C194.199 40.3793 194.003 40.4617 193.776 40.4617H184.25C184.25 40.4617 184.25 40.4824 184.25 40.5236C184.25 40.5648 184.25 40.6061 184.25 40.6473C184.25 41.1422 184.312 41.5855 184.436 41.9773C184.58 42.3485 184.796 42.6475 185.085 42.8743C185.374 43.0805 185.724 43.1836 186.137 43.1836C186.405 43.1836 186.632 43.1423 186.817 43.0599C187.003 42.9774 187.168 42.8743 187.312 42.7506C187.456 42.6062 187.58 42.4722 187.683 42.3485C187.869 42.1629 188.013 42.0495 188.116 42.0082C188.24 41.9464 188.426 41.9155 188.673 41.9155H193.529C193.715 41.9155 193.869 41.9773 193.993 42.101C194.137 42.2248 194.199 42.3794 194.179 42.565C194.158 42.9361 193.983 43.3898 193.653 43.9259C193.323 44.4414 192.828 44.9466 192.168 45.4415C191.529 45.9364 190.704 46.3488 189.694 46.6787C188.683 47.0086 187.518 47.1736 186.199 47.1736ZM184.25 36.9976H188.085V36.9357C188.085 36.379 188.013 35.9047 187.869 35.5129C187.725 35.1212 187.508 34.8325 187.219 34.6469C186.931 34.4407 186.58 34.3376 186.168 34.3376C185.755 34.3376 185.405 34.4407 185.116 34.6469C184.827 34.8325 184.611 35.1212 184.467 35.5129C184.322 35.9047 184.25 36.379 184.25 36.9357V36.9976Z" fill="#FFD84F"/>
<mask id="mask0_500_200" style="mask-type:luminance" maskUnits="userSpaceOnUse" x="0" y="0" width="95" height="53">
<path d="M94.9204 0.496094H0.285645V52.1861H94.9204V0.496094Z" fill="white"/>
</mask>
<g mask="url(#mask0_500_200)">
<path d="M58.6938 1.32812V19.7379L39.8975 46.5236L39.8889 46.5322L36.9595 50.7073V32.2889L58.6938 1.32812Z" fill="url(#paint0_linear_500_200)"/>
<path d="M94.525 1.04688V52.0925H72.791V32.0076L94.525 1.04688Z" fill="#E6B938"/>
<path d="M59.2859 0.496094L56.4596 2.9702L56.451 2.97879C56.4224 2.99827 56.3964 3.02137 56.3737 3.04752H56.3651L2.06354 50.6312H2.05581C2.03004 50.6561 2.01286 50.6733 2.00427 50.6733V50.6827C1.99211 50.6904 1.98062 50.699 1.96991 50.7085L0.286133 52.1861L4.61583 46.0266C4.63301 45.9922 4.65878 45.9664 4.67596 45.9321L36.5731 0.496094H59.2859Z" fill="#E33D5C"/>
<path d="M59.2863 0.496094L58.6935 1.32939L36.9592 32.2901L22.9993 52.1861H0.285645L2.05532 50.6312H2.06391L56.3655 3.04752L58.6935 1.01153L59.2863 0.496094Z" fill="#E33D5C"/>
<path d="M94.9212 0.496094L94.526 0.839715L91.021 3.91603L91.0125 3.92463L90.9781 3.94953C90.9695 3.96757 90.9609 3.96757 90.9523 3.97616C90.9437 3.98476 90.9437 3.98475 90.9351 3.98475V3.99335L90.8664 4.04489C90.8363 4.06486 90.8071 4.08789 90.7805 4.11362L72.792 19.8775L58.6947 32.2308L38.8159 49.6355L38.7472 49.7042C38.7235 49.7293 38.6977 49.7523 38.6699 49.773L36.9604 51.2677L35.9209 52.1869L36.9604 50.7094L39.8898 46.5343L39.8984 46.5257L58.6947 19.7392L72.2078 0.496094H94.9212Z" fill="#E6B938"/>
<path d="M94.921 0.496094L94.5258 1.0459L72.7919 32.0066L58.6946 52.0916L58.6345 52.1861H35.9199L36.9594 51.2669L38.815 49.6347L58.6938 32.23L72.791 19.8766L90.7794 4.11275L90.8653 4.04403L90.8739 4.03545L90.9341 3.99248V3.9839C90.9427 3.9839 90.9427 3.97531 90.9513 3.97531L94.525 0.838863L94.921 0.496094Z" fill="#E6B938"/>
<g style="mix-blend-mode:multiply" opacity="0.24">
<path d="M58.6938 1.3291V17.6943L36.9595 34.0681V32.2899L58.6938 1.3291Z" fill="black"/>
</g>
<g style="mix-blend-mode:multiply" opacity="0.24">
<path d="M94.525 1.0459V17.2221L94.3962 17.3166L72.791 33.5959V32.0066L94.525 1.0459Z" fill="black"/>
</g>
<g style="mix-blend-mode:screen" opacity="0.4">
<path d="M90.9509 3.97559C90.9509 3.98415 90.9423 3.98414 90.9338 3.99271L90.8652 4.04411C90.8866 4.02174 90.9089 4.00164 90.9338 3.98414C90.9423 3.98414 90.9423 3.97559 90.9509 3.97559Z" fill="white"/>
</g>
<g style="mix-blend-mode:multiply" opacity="0.25">
<path d="M94.921 0.496094C94.7921 0.70227 94.6633 0.908438 94.5258 1.10602C93.2372 3.11624 91.9057 5.10928 90.5913 7.10231C89.1567 9.30152 87.6705 11.4835 86.2015 13.6656C83.2639 18.0285 80.2972 22.3754 77.302 26.7062L72.7919 33.1921V32.0066L58.6946 52.0916L58.6345 52.1861H35.9199C39.7084 52.0229 43.4883 51.9533 47.2768 51.8339L58.3415 51.6449C59.759 49.5402 61.2108 47.4518 62.6455 45.3565L67.1556 38.8792L71.6828 32.4095L76.2445 25.9665C79.2942 21.6798 82.3782 17.4131 85.4966 13.1665C87.0425 11.0437 88.5888 8.91408 90.1781 6.80937C91.7502 4.69693 93.3137 2.5862 94.921 0.496094Z" fill="black"/>
</g>
<g style="mix-blend-mode:multiply" opacity="0.25">
<path d="M94.525 14.9873V52.0904H72.791C74.6036 51.9787 76.4163 51.91 78.2289 51.8326C80.0415 51.7553 81.8456 51.7038 83.6582 51.6436C87.0683 51.5491 90.4702 51.4976 93.8807 51.4547C93.855 48.5759 93.8378 45.6989 93.8464 42.8124C93.855 39.7198 93.8722 36.6272 93.9237 33.5345C93.9752 30.4419 94.0268 27.357 94.1299 24.2652C94.1642 22.7189 94.233 21.1726 94.3017 19.6263C94.3275 18.8531 94.3618 18.0894 94.3962 17.3162C94.4305 16.5431 94.4735 15.7596 94.525 14.9873Z" fill="black"/>
</g>
<g style="mix-blend-mode:overlay">
<path d="M88.2201 0.496959C85.5487 0.633551 82.877 0.694536 80.2139 0.797624C77.6281 0.88353 75.0509 0.917899 72.4737 0.978034C71.2109 2.85939 69.9567 4.74074 68.6681 6.59632L64.6734 12.3864L60.6444 18.1507L56.5896 23.8979L52.4833 29.6107L48.334 35.2805C46.9423 37.1705 45.5678 39.0681 44.1503 40.9332C42.7329 42.7982 41.3412 44.6787 39.8979 46.5257L58.6943 19.7392L72.2074 0.496094L88.2201 0.496959Z" fill="#E6B938"/>
</g>
</g>
</g>
<defs>
<linearGradient id="paint0_linear_500_200" x1="47.8267" y1="43.5966" x2="47.8267" y2="16.3394" gradientUnits="userSpaceOnUse">
<stop stop-color="#F58033"/>
<stop offset="1" stop-color="#A53826"/>
</linearGradient>
<clipPath id="clip0_500_200">
<rect width="245" height="52" fill="white"/>
</clipPath>
</defs>
</svg>
